<svg height="512pt" viewBox="0 -120 512 512" width="512pt" xmlns="http://www.w3.org/2000/svg"><path d="m500.4375 253.507812c-9.429688 11.121094-23.230469 17.5-37.871094 17.5h-413.132812c-14.640625 0-28.441406-6.378906-37.871094-17.511718-9.28125-10.949219-13.25-25.308594-10.902344-39.398438 9.863282-59.203125 40.792969-113.414062 87.113282-152.644531 46.804687-39.632813 106.542968-61.453125 168.226562-61.453125s121.421875 21.820312 168.226562 61.453125c46.320313 39.230469 77.25 93.441406 87.113282 152.644531 2.347656 14.089844-1.621094 28.460938-10.902344 39.410156zm0 0" fill="#fff"/><path d="m500.4375 253.507812c-9.429688 11.121094-23.230469 17.5-37.871094 17.5h-206.566406v-271.007812c61.683594 0 121.421875 21.820312 168.226562 61.453125 46.320313 39.230469 77.25 93.441406 87.113282 152.644531 2.347656 14.089844-1.621094 28.460938-10.902344 39.410156zm0 0" fill="#f1f2f2"/><path d="m207.867188 129.003906c-3.773438-7.375-12.8125-10.292968-20.1875-6.519531s-10.296876 12.8125-6.523438 20.183594l61.492188 120.171875 26.707031-13.664063zm0 0" fill="#ff9996"/><path d="m340.851562 253.976562h-169.703124c0-46.351562 38.058593-84.0625 84.851562-84.0625s84.851562 37.710938 84.851562 84.0625zm0 0" fill="#00e7f0"/><path d="m340.851562 253.976562h-84.851562v-84.0625c46.792969 0 84.851562 37.710938 84.851562 84.0625zm0 0" fill="#00c7ce"/><path d="m271 15v47.203125c0 8.289063-6.71875 15-15 15s-15-6.710937-15-15v-47.203125c0-8.28125 6.71875-15 15-15s15 6.71875 15 15zm0 0" fill="#d1d4d5"/><path d="m256 77.203125v-77.203125c8.28125 0 15 6.71875 15 15v47.203125c0 8.289063-6.71875 15-15 15zm0 0" fill="#bdbfc1"/><path d="m133.261719 119.394531c-8.253907 0-8.261719-2.074219-44.203125-37.605469-14.105469-13.945312 6.964844-35.296874 21.089844-21.335937l33.660156 33.273437c9.496094 9.386719 2.800781 25.667969-10.546875 25.667969zm0 0" fill="#d1d4d5"/><path d="m378.386719 119.394531c-13.355469 0-20.039063-16.285156-10.550781-25.667969l33.660156-33.273437c14.101562-13.9375 35.214844 7.371094 21.09375 21.335937-36.074219 35.660157-35.988282 37.605469-44.203125 37.605469zm0 0" fill="#bdbfc1"/><path d="m64.25 210.921875h-44.402344c-8.285156 0-15-6.714844-15-15 0-8.28125 6.714844-15 15-15h44.402344c8.285156 0 15 6.71875 15 15 0 8.285156-6.714844 15-15 15zm0 0" fill="#d1d4d5"/><path d="m491.945312 210.921875h-44.402343c-8.285157 0-15-6.714844-15-15 0-8.28125 6.714843-15 15-15h44.402343c8.285157 0 15 6.71875 15 15 0 8.285156-6.714843 15-15 15zm0 0" fill="#bdbfc1"/><path d="m511.339844 214.097656c-9.863282-59.203125-40.792969-113.414062-87.113282-152.644531-46.804687-39.632813-106.542968-61.453125-168.226562-61.453125s-121.421875 21.820312-168.226562 61.453125c-46.320313 39.230469-77.25 93.441406-87.113282 152.644531-2.347656 14.089844 1.621094 28.449219 10.902344 39.398438 9.429688 11.132812 23.230469 17.511718 37.871094 17.511718h413.132812c14.640625 0 28.441406-6.378906 37.871094-17.5 9.28125-10.949218 13.25-25.320312 10.902344-39.410156zm-33.792969 20.007813c-3.710937 4.390625-9.179687 6.902343-14.980469 6.902343h-413.132812c-5.800782 0-11.269532-2.511718-14.980469-6.902343-3.621094-4.269531-5.109375-9.617188-4.199219-15.078125 8.6875-52.203125 36.011719-100.035156 76.910156-134.675782 41.382813-35.050781 94.246094-54.351562 148.835938-54.351562s107.453125 19.300781 148.835938 54.351562c40.898437 34.640626 68.222656 82.472657 76.910156 134.675782.910156 5.449218-.578125 10.808594-4.199219 15.078125zm0 0" fill="#2d475c"/><path d="m500.4375 253.507812c-9.429688 11.121094-23.230469 17.5-37.871094 17.5h-206.566406v-30h206.566406c5.800782 0 11.269532-2.511718 14.980469-6.902343 3.621094-4.269531 5.109375-9.628907 4.199219-15.078125-8.6875-52.203125-36.011719-100.035156-76.910156-134.675782-41.382813-35.050781-94.246094-54.351562-148.835938-54.351562v-30c61.683594 0 121.421875 21.820312 168.226562 61.453125 46.320313 39.230469 77.25 93.441406 87.113282 152.644531 2.347656 14.089844-1.621094 28.460938-10.902344 39.410156zm0 0" fill="#223c4d"/></svg>